<?xml version="1.0" encoding="UTF-8"?>
<svg xmlns="http://www.w3.org/2000/svg" width="24" height="24" viewBox="0 0 24 24">
  <g fill="none" stroke="#FFFFFF" stroke-width="1.8" stroke-linecap="round" stroke-linejoin="round">
    <!-- Chat bubble (generic) -->
    <path d="M5.6 18.4l1.5-1a7.8 7.8 0 002 .6 7.9 7.9 0 006.1-1.6 7.9 7.9 0 003-5.3 7.9 7.9 0 00-6.9-8.7 7.9 7.9 0 00-8.7 6.9c-.2 1.3 0 2.6.4 3.8l-1 1.7a.9.9 0 001.2 1.3l1.7-.7z"/>
    <!-- Phone handset (generic) -->
    <path d="M13.4 14.7c-2.1-1.1-3.8-2.8-4.9-4.9l1.3-1.3a.9.9 0 011.2 0l.8 1.1c.2.3.3.6.1.9l-.4.7a9.1 9.1 0 003.6 3.6l.7-.4c.3-.2.6-.1.9.1l1.1.8a.9.9 0 010 1.2l-1.3 1.3a.9.9 0 01-1.1.2l-1-.3z"/>
  </g>
</svg>
